# xmcd
# 
# Track frame offsets:
#     150
#     12480
#     17595
#     32667
#     92075
#     113415
#     127831
#     148171
# 
# Disc length: 2451
# 
# Revision: 0
# Processed by: cddbd v1.5.2PL0 Copyright (c) Steve Scherf et al.
# Submitted via: fre:ac v1.0.17
# 
DISCID=5b099108
DTITLE=Jimi Hendrix - In The West
DYEAR=0
DGENRE=Blues
TTITLE0=1
TTITLE1=2
TTITLE2=Little Wing
TTITLE3=Red House
TTITLE4=Johnny B Goode
TTITLE5=6
TTITLE6=7
TTITLE7=Voodoo Chile
EXTD=From LP
EXTT0=
EXTT1=
EXTT2=
EXTT3=
EXTT4=
EXTT5=
EXTT6=
EXTT7=
PLAYORDER=
